<svg width="24" height="23" viewBox="0 0 24 23" fill="none" xmlns="http://www.w3.org/2000/svg">
<path d="M3.30052 0C2.42532 0 1.58598 0.350718 0.967123 0.975001C0.348269 1.59928 0.000599942 2.44599 0.000599942 3.32886V9.68396C0.955355 8.39979 2.37671 7.55081 3.95197 7.3238C5.52724 7.09679 7.12738 7.51034 8.40039 8.47347C9.6734 9.4366 10.515 10.8704 10.74 12.4595C10.9651 14.0486 10.5551 15.6628 9.60036 16.9469V18.1574H20.7001C21.5753 18.1574 22.4146 17.8067 23.0335 17.1824C23.6523 16.5581 24 15.7114 24 14.8286V3.32886C24 2.44599 23.6523 1.59928 23.0335 0.975001C22.4146 0.350718 21.5753 0 20.7001 0H3.30052ZM5.70046 4.84198H18.3001C18.5388 4.84198 18.7677 4.93763 18.9365 5.10789C19.1053 5.27815 19.2001 5.50907 19.2001 5.74985C19.2001 5.99063 19.1053 6.22156 18.9365 6.39181C18.7677 6.56207 18.5388 6.65772 18.3001 6.65772H5.70046C5.46177 6.65772 5.23286 6.56207 5.06408 6.39181C4.8953 6.22156 4.80048 5.99063 4.80048 5.74985C4.80048 5.50907 4.8953 5.27815 5.06408 5.10789C5.23286 4.93763 5.46177 4.84198 5.70046 4.84198ZM12.0003 11.8023C12.0003 11.5615 12.0951 11.3306 12.2639 11.1604C12.4327 10.9901 12.6616 10.8945 12.9003 10.8945H18.3001C18.5388 10.8945 18.7677 10.9901 18.9365 11.1604C19.1053 11.3306 19.2001 11.5615 19.2001 11.8023C19.2001 12.0431 19.1053 12.274 18.9365 12.4443C18.7677 12.6145 18.5388 12.7102 18.3001 12.7102H12.9003C12.6616 12.7102 12.4327 12.6145 12.2639 12.4443C12.0951 12.274 12.0003 12.0431 12.0003 11.8023ZM4.80048 8.47347C3.52731 8.47347 2.30629 8.98367 1.40603 9.89183C0.505763 10.8 0 12.0317 0 13.3161C0 14.6004 0.505763 15.8321 1.40603 16.7403C2.30629 17.6484 3.52731 18.1586 4.80048 18.1586C6.07365 18.1586 7.29467 17.6484 8.19493 16.7403C9.0952 15.8321 9.60096 14.6004 9.60096 13.3161C9.60096 12.0317 9.0952 10.8 8.19493 9.89183C7.29467 8.98367 6.07365 8.47347 4.80048 8.47347ZM8.40039 18.1586C7.39841 18.9188 6.15165 19.3691 4.80048 19.3691C3.50228 19.3716 2.2386 18.9475 1.20057 18.1611V22.0903C1.20057 22.7803 1.92655 23.204 2.50854 22.9001L2.61653 22.8336L4.80048 21.295L6.98443 22.8348C7.11055 22.9236 7.25714 22.9784 7.41021 22.9938C7.56328 23.0092 7.71771 22.9848 7.85877 22.9229C7.99982 22.861 8.12278 22.7636 8.21592 22.6401C8.30906 22.5166 8.36927 22.3711 8.39079 22.2174L8.40039 22.0903V18.1586Z" fill="#086BB6"/>
</svg>
