<svg width="32" height="32" viewBox="0 0 32 32" fill="none" xmlns="http://www.w3.org/2000/svg">
<path d="M2 16C2 12.287 3.475 8.72601 6.10051 6.10051C8.72601 3.475 12.287 2 16 2C19.713 2 23.274 3.475 25.8995 6.10051C28.525 8.72601 30 12.287 30 16V24.9075C30 26.3915 30 27.13 29.7795 27.7232C29.6042 28.1933 29.3298 28.6203 28.975 28.975C28.6203 29.3298 28.1933 29.6042 27.7232 29.7795C27.13 30 26.3898 30 24.9075 30H16C12.287 30 8.72601 28.525 6.10051 25.8995C3.475 23.274 2 19.713 2 16Z" stroke="white" stroke-width="2.5"/>
<path d="M10.75 14.25H21.25M16 21.25H21.25" stroke="white" stroke-width="2.5" stroke-linecap="round" stroke-linejoin="round"/>
</svg>
