<svg width="122" height="113" viewBox="0 0 122 113" fill="none" xmlns="http://www.w3.org/2000/svg">
<path d="M79.0378 9.67382L37.8533 26.0726C34.7448 27.3289 31.2094 27.6589 27.842 27.007C26.4212 26.7148 24.9854 26.4749 23.539 26.2882C12.2399 25.2254 5.20039 32.6392 5.20039 41.1672V45.8496C5.20039 54.3725 12.2399 61.7914 23.539 60.7184C24.9869 60.5409 26.4231 60.3027 27.842 60.0047C31.2101 59.3544 34.7456 59.6862 37.8533 60.9443L79.0378 77.3379C88.4919 81.1013 93.222 82.9855 98.4908 81.5171C103.766 80.0488 105.574 76.9015 109.189 70.6069C114.096 62.1528 116.644 52.8908 116.644 43.5084C116.644 34.126 114.096 24.8641 109.189 16.4099C105.574 10.1154 103.766 6.96294 98.4908 5.49969C93.222 4.0313 88.4919 5.90529 79.0378 9.67382Z" stroke="#086BB6" stroke-width="9" stroke-linecap="round" stroke-linejoin="round"/>
<path d="M33.0611 58.906V28.1006M57.5662 101.366L48.335 107.681C27.5199 93.9933 30.0645 87.4677 30.0645 61.4731H37.0854C39.9334 76.157 46.6509 83.119 55.9255 88.1557C61.6339 91.2568 62.8102 97.7824 57.5662 101.366Z" stroke="#086BB6" stroke-width="9" stroke-linecap="round" stroke-linejoin="round"/>
</svg>
