<svg width="132" height="119" viewBox="0 0 132 119" fill="none" xmlns="http://www.w3.org/2000/svg">
<path d="M5.83264 45.2956H125.441M5.83264 45.2956V108.394C5.83264 109.915 6.49588 111.374 7.67646 112.45C8.85704 113.526 10.4582 114.13 12.1278 114.13H119.146C120.816 114.13 122.417 113.526 123.598 112.45C124.778 111.374 125.441 109.915 125.441 108.394V45.2956M5.83264 45.2956V19.4828C5.83264 17.9614 6.49588 16.5024 7.67646 15.4267C8.85704 14.3509 10.4582 13.7466 12.1278 13.7466H119.146C120.816 13.7466 122.417 14.3509 123.598 15.4267C124.778 16.5024 125.441 17.9614 125.441 19.4828V45.2956" stroke="#086BB6" stroke-width="9" stroke-linejoin="round"/>
<path d="M40.0065 79.7465L58.992 96.7405L96.963 62.7524" stroke="#086BB6" stroke-width="9" stroke-linecap="round" stroke-linejoin="round"/>
<path d="M40.0065 5.052V27.9742M91.2673 5.052V27.9742" stroke="#086BB6" stroke-width="9" stroke-linecap="round"/>
</svg>
