<svg width="132" height="109" viewBox="0 0 132 109" fill="none" xmlns="http://www.w3.org/2000/svg">
<path d="M44.7817 83.8461H17.6036C16.4455 83.8461 15.3348 83.4045 14.5159 82.6183C13.697 81.832 13.2369 80.7657 13.2369 79.6538V8.38461H4.5036C3.34549 8.38461 2.23481 7.94293 1.4159 7.15672C0.59699 6.37051 0.136932 5.30418 0.136932 4.19231C0.136932 3.08044 0.59699 2.01411 1.4159 1.2279C2.23481 0.441689 3.34549 0 4.5036 0H126.77C127.928 0 129.039 0.441689 129.858 1.2279C130.677 2.01411 131.137 3.08044 131.137 4.19231C131.137 5.30418 130.677 6.37051 129.858 7.15672C129.039 7.94293 127.928 8.38461 126.77 8.38461H118.037V79.6538C118.037 80.7657 117.577 81.832 116.758 82.6183C115.939 83.4045 114.828 83.8461 113.67 83.8461H86.5445L101.671 109H91.5924L76.4663 83.8461H54.86L39.7339 109H29.6556L44.7817 83.8461ZM109.304 8.38461H21.9703V75.4615H109.304V8.38461ZM42.5285 53.2758C42.1225 53.6656 41.6406 53.9748 41.1101 54.1858C40.5796 54.3967 40.0111 54.5053 39.4369 54.5053C38.8628 54.5053 38.2942 54.3967 37.7638 54.1858C37.2333 53.9748 36.7513 53.6656 36.3453 53.2758C35.9393 52.8861 35.6173 52.4233 35.3976 51.914C35.1778 51.4048 35.0647 50.8589 35.0647 50.3077C35.0647 49.7565 35.1778 49.2106 35.3976 48.7013C35.6173 48.1921 35.9393 47.7293 36.3453 47.3395L56.4931 28.0046L73.6105 40.33L88.4309 22.5378C88.7778 22.0787 89.2181 21.692 89.7252 21.401C90.2323 21.11 90.7957 20.9208 91.3811 20.8449C91.9666 20.769 92.562 20.8079 93.1313 20.9593C93.7007 21.1107 94.2321 21.3715 94.6934 21.7258C95.1547 22.0801 95.5364 22.5206 95.8152 23.0207C96.0941 23.5207 96.2643 24.0699 96.3157 24.6349C96.3671 25.1999 96.2985 25.7691 96.1141 26.308C95.9297 26.8468 95.6333 27.3441 95.2429 27.7698L75.1388 51.9092L57.3141 39.0723L42.5285 53.2675V53.2758Z" fill="#086BB6"/>
</svg>
