<svg width="124" height="119" viewBox="0 0 124 119" fill="none" xmlns="http://www.w3.org/2000/svg">
<path d="M7.44322 111.448L43.1369 77.5457M96.147 57.3396L84.3943 90.9733C84.2067 91.5125 83.8856 92.0005 83.4581 92.396C83.0307 92.7914 82.5095 93.0827 81.9389 93.245L9.89248 113.672C9.2434 113.856 8.55388 113.867 7.89896 113.703C7.24403 113.539 6.6488 113.207 6.17804 112.742C5.70727 112.278 5.37901 111.7 5.22898 111.07C5.07895 110.44 5.11289 109.783 5.32711 109.17L28.7215 42.2324C28.8892 41.7518 29.1633 41.3112 29.5252 40.9406C29.8871 40.57 30.3284 40.2779 30.8191 40.0844L64.0537 27.0311C64.7294 26.7649 65.4726 26.6955 66.1895 26.8316C66.9065 26.9678 67.5651 27.3034 68.0824 27.7961L95.2525 53.7262C95.7386 54.1898 96.0798 54.7735 96.2378 55.4117C96.3958 56.0499 96.3644 56.7175 96.147 57.3396Z" stroke="#086BB6" stroke-width="9" stroke-linecap="round" stroke-linejoin="round"/>
<path d="M97.4909 55.6291L115.424 38.5067C117.801 36.2367 119.137 33.1584 119.137 29.9486C119.137 26.7388 117.801 23.6604 115.424 21.3904L101.98 8.54717C100.803 7.42261 99.4044 6.53053 97.8654 5.9219C96.3264 5.31326 94.6768 5 93.0109 5C91.345 5 89.6954 5.31326 88.1564 5.9219C86.6174 6.53053 85.2191 7.42261 84.0413 8.54717L66.1086 25.6695M59.3743 62.0447C58.4908 61.2018 57.4419 60.5332 56.2877 60.0772C55.1335 59.6211 53.8965 59.3866 52.6472 59.3869C51.398 59.3871 50.1611 59.6223 49.0071 60.0788C47.8531 60.5354 46.8046 61.2044 45.9215 62.0477C45.0384 62.891 44.338 63.892 43.8602 64.9937C43.3824 66.0954 43.1367 67.2761 43.137 68.4684C43.1373 69.6608 43.3836 70.8413 43.8619 71.9428C44.3402 73.0443 45.0412 74.045 45.9247 74.8879C47.7091 76.5902 50.1289 77.5463 52.6517 77.5457C55.1746 77.5451 57.5939 76.588 59.3775 74.8849C61.161 73.1818 62.1626 70.8722 62.162 68.4642C62.1614 66.0561 61.1586 63.747 59.3743 62.0447Z" stroke="#086BB6" stroke-width="9" stroke-linecap="round" stroke-linejoin="round"/>
</svg>
