<svg width="32" height="28" viewBox="0 0 32 28" fill="none" xmlns="http://www.w3.org/2000/svg">
<path d="M12.4286 0.85C12.3457 0.85 12.2786 0.917157 12.2786 1V7.84211C12.2786 7.92495 12.3457 7.99211 12.4286 7.99211H15.1357V13.1658H8.14286C6.96846 13.1658 5.84094 13.6126 5.00864 14.4099C4.17612 15.2073 3.70714 16.2904 3.70714 17.4211V20.0079H1C0.917157 20.0079 0.85 20.0751 0.85 20.1579V27C0.85 27.0828 0.917157 27.15 1 27.15H8.14286C8.2257 27.15 8.29286 27.0828 8.29286 27V20.1579C8.29286 20.0751 8.2257 20.0079 8.14286 20.0079H5.43571V17.4211C5.43571 16.7371 5.71929 16.0798 6.22631 15.5941C6.73355 15.1083 7.42285 14.8342 8.14286 14.8342H15.1357V20.0079H12.4286C12.3457 20.0079 12.2786 20.0751 12.2786 20.1579V27C12.2786 27.0828 12.3457 27.15 12.4286 27.15H19.5714C19.6543 27.15 19.7214 27.0828 19.7214 27V20.1579C19.7214 20.0751 19.6543 20.0079 19.5714 20.0079H16.8643V14.8342H23.8571C24.5772 14.8342 25.2664 15.1083 25.7737 15.5941C26.2807 16.0798 26.5643 16.7371 26.5643 17.4211V20.0079H23.8571C23.7743 20.0079 23.7071 20.0751 23.7071 20.1579V27C23.7071 27.0828 23.7743 27.15 23.8571 27.15H31C31.0828 27.15 31.15 27.0828 31.15 27V20.1579C31.15 20.0751 31.0828 20.0079 31 20.0079H28.2929V17.4211C28.2929 16.2904 27.8239 15.2073 26.9914 14.4099C26.1591 13.6126 25.0315 13.1658 23.8571 13.1658H16.8643V7.99211H19.5714C19.6543 7.99211 19.7214 7.92495 19.7214 7.84211V1C19.7214 0.917157 19.6543 0.85 19.5714 0.85H12.4286ZM14.0071 2.51842H17.9929V6.32368H14.0071V2.51842ZM2.57857 21.6763H6.56429V25.4816H2.57857V21.6763ZM14.0071 21.6763H17.9929V25.4816H14.0071V21.6763ZM25.4357 21.6763H29.4214V25.4816H25.4357V21.6763Z" fill="black" stroke="black" stroke-width="0.3" stroke-linejoin="round"/>
</svg>
