<svg width="28" height="30" viewBox="0 0 28 30" fill="none" xmlns="http://www.w3.org/2000/svg">
<path d="M9 25V29M3 1H15C15.5304 1 16.0391 1.21071 16.4142 1.58579C16.7893 1.96086 17 2.46957 17 3V28.75C17 28.8163 16.9737 28.8799 16.9268 28.9268C16.8799 28.9737 16.8163 29 16.75 29H1V3C1 2.46957 1.21071 1.96086 1.58579 1.58579C1.96086 1.21071 2.46957 1 3 1ZM18 11H25C25.5304 11 26.0391 11.2107 26.4142 11.5858C26.7893 11.9609 27 12.4696 27 13V29H17V12C17 11.7348 17.1054 11.4804 17.2929 11.2929C17.4804 11.1054 17.7348 11 18 11Z" stroke="black" stroke-width="2" stroke-linecap="round" stroke-linejoin="round"/>
<path d="M4.13017 25.9918C3.92306 26.0189 3.71267 25.9804 3.52853 25.8819C3.34438 25.7833 3.19573 25.6295 3.10343 25.4422C3.01113 25.2548 2.97981 25.0432 3.01388 24.8371C3.04795 24.6311 3.14569 24.4408 3.29338 24.2931C3.44108 24.1454 3.63131 24.0477 3.83738 24.0136C4.04346 23.9796 4.25503 24.0109 4.4424 24.1032C4.62977 24.1955 4.78353 24.3441 4.88211 24.5283C4.98069 24.7124 5.01913 24.9228 4.99205 25.1299C4.96346 25.3485 4.86346 25.5515 4.7076 25.7074C4.55173 25.8632 4.34874 25.9632 4.13017 25.9918ZM4.13017 20.9918C3.92306 21.0189 3.71267 20.9804 3.52853 20.8819C3.34438 20.7833 3.19573 20.6295 3.10343 20.4422C3.01113 20.2548 2.97981 20.0432 3.01388 19.8371C3.04795 19.6311 3.14569 19.4408 3.29338 19.2931C3.44108 19.1454 3.63131 19.0477 3.83738 19.0136C4.04346 18.9796 4.25503 19.0109 4.4424 19.1032C4.62977 19.1955 4.78353 19.3441 4.88211 19.5283C4.98069 19.7124 5.01913 19.9228 4.99205 20.1299C4.96346 20.3485 4.86346 20.5515 4.7076 20.7074C4.55173 20.8632 4.34874 20.9632 4.13017 20.9918ZM4.13017 15.9918C3.92306 16.0189 3.71267 15.9804 3.52853 15.8819C3.34438 15.7833 3.19573 15.6295 3.10343 15.4422C3.01113 15.2548 2.97981 15.0432 3.01388 14.8371C3.04795 14.6311 3.14569 14.4408 3.29338 14.2931C3.44108 14.1454 3.63131 14.0477 3.83738 14.0136C4.04346 13.9796 4.25503 14.0109 4.4424 14.1032C4.62977 14.1955 4.78353 14.3441 4.88211 14.5283C4.98069 14.7124 5.01913 14.9228 4.99205 15.1299C4.96346 15.3485 4.86346 15.5515 4.7076 15.7074C4.55173 15.8632 4.34874 15.9632 4.13017 15.9918ZM4.13017 10.9918C3.92306 11.0189 3.71267 10.9804 3.52853 10.8819C3.34438 10.7833 3.19573 10.6295 3.10343 10.4422C3.01113 10.2548 2.97981 10.0432 3.01388 9.83714C3.04795 9.63107 3.14569 9.44083 3.29338 9.29314C3.44108 9.14545 3.63131 9.04771 3.83738 9.01364C4.04346 8.97957 4.25503 9.01088 4.4424 9.10318C4.62977 9.19549 4.78353 9.34414 4.88211 9.52828C4.98069 9.71243 5.01913 9.92282 4.99205 10.1299C4.96346 10.3485 4.86346 10.5515 4.7076 10.7074C4.55173 10.8632 4.34874 10.9632 4.13017 10.9918ZM4.13017 5.9918C3.92306 6.01889 3.71267 5.98044 3.52853 5.88186C3.34438 5.78329 3.19573 5.62952 3.10343 5.44215C3.01113 5.25478 2.97981 5.04321 3.01388 4.83714C3.04795 4.63107 3.14569 4.44083 3.29338 4.29314C3.44108 4.14544 3.63131 4.0477 3.83738 4.01364C4.04346 3.97957 4.25503 4.01088 4.4424 4.10318C4.62977 4.19549 4.78353 4.34414 4.88211 4.52828C4.98069 4.71243 5.01913 4.92282 4.99205 5.12993C4.96346 5.34849 4.86346 5.55149 4.7076 5.70735C4.55173 5.86322 4.34874 5.96322 4.13017 5.9918ZM9.13017 20.9918C8.92306 21.0189 8.71267 20.9804 8.52853 20.8819C8.34438 20.7833 8.19573 20.6295 8.10343 20.4422C8.01113 20.2548 7.97981 20.0432 8.01388 19.8371C8.04795 19.6311 8.14569 19.4408 8.29338 19.2931C8.44108 19.1454 8.63131 19.0477 8.83738 19.0136C9.04346 18.9796 9.25503 19.0109 9.4424 19.1032C9.62977 19.1955 9.78353 19.3441 9.88211 19.5283C9.98069 19.7124 10.0191 19.9228 9.99204 20.1299C9.96346 20.3485 9.86346 20.5515 9.7076 20.7074C9.55173 20.8632 9.34874 20.9632 9.13017 20.9918ZM9.13017 15.9918C8.92306 16.0189 8.71267 15.9804 8.52853 15.8819C8.34438 15.7833 8.19573 15.6295 8.10343 15.4422C8.01113 15.2548 7.97981 15.0432 8.01388 14.8371C8.04795 14.6311 8.14569 14.4408 8.29338 14.2931C8.44108 14.1454 8.63131 14.0477 8.83738 14.0136C9.04346 13.9796 9.25503 14.0109 9.4424 14.1032C9.62977 14.1955 9.78353 14.3441 9.88211 14.5283C9.98069 14.7124 10.0191 14.9228 9.99204 15.1299C9.96346 15.3485 9.86346 15.5515 9.7076 15.7074C9.55173 15.8632 9.34874 15.9632 9.13017 15.9918ZM9.13017 10.9918C8.92306 11.0189 8.71267 10.9804 8.52853 10.8819C8.34438 10.7833 8.19573 10.6295 8.10343 10.4422C8.01113 10.2548 7.97981 10.0432 8.01388 9.83714C8.04795 9.63107 8.14569 9.44083 8.29338 9.29314C8.44108 9.14545 8.63131 9.04771 8.83738 9.01364C9.04346 8.97957 9.25503 9.01088 9.4424 9.10318C9.62977 9.19549 9.78353 9.34414 9.88211 9.52828C9.98069 9.71243 10.0191 9.92282 9.99204 10.1299C9.96346 10.3485 9.86346 10.5515 9.7076 10.7074C9.55173 10.8632 9.34874 10.9632 9.13017 10.9918ZM9.13017 5.9918C8.92306 6.01889 8.71267 5.98044 8.52853 5.88186C8.34438 5.78329 8.19573 5.62952 8.10343 5.44215C8.01113 5.25478 7.97981 5.04321 8.01388 4.83714C8.04795 4.63107 8.14569 4.44083 8.29338 4.29314C8.44108 4.14544 8.63131 4.0477 8.83738 4.01364C9.04346 3.97957 9.25503 4.01088 9.4424 4.10318C9.62977 4.19549 9.78353 4.34414 9.88211 4.52828C9.98069 4.71243 10.0191 4.92282 9.99204 5.12993C9.96346 5.34849 9.86346 5.55149 9.7076 5.70735C9.55173 5.86322 9.34874 5.96322 9.13017 5.9918ZM14.1302 25.9918C13.9231 26.0189 13.7127 25.9804 13.5285 25.8819C13.3444 25.7833 13.1957 25.6295 13.1034 25.4422C13.0111 25.2548 12.9798 25.0432 13.0139 24.8371C13.0479 24.6311 13.1457 24.4408 13.2934 24.2931C13.4411 24.1454 13.6313 24.0477 13.8374 24.0136C14.0435 23.9796 14.255 24.0109 14.4424 24.1032C14.6298 24.1955 14.7835 24.3441 14.8821 24.5283C14.9807 24.7124 15.0191 24.9228 14.992 25.1299C14.9635 25.3485 14.8635 25.5515 14.7076 25.7074C14.5517 25.8632 14.3487 25.9632 14.1302 25.9918ZM14.1302 20.9918C13.9231 21.0189 13.7127 20.9804 13.5285 20.8819C13.3444 20.7833 13.1957 20.6295 13.1034 20.4422C13.0111 20.2548 12.9798 20.0432 13.0139 19.8371C13.0479 19.6311 13.1457 19.4408 13.2934 19.2931C13.4411 19.1454 13.6313 19.0477 13.8374 19.0136C14.0435 18.9796 14.255 19.0109 14.4424 19.1032C14.6298 19.1955 14.7835 19.3441 14.8821 19.5283C14.9807 19.7124 15.0191 19.9228 14.992 20.1299C14.9635 20.3485 14.8635 20.5515 14.7076 20.7074C14.5517 20.8632 14.3487 20.9632 14.1302 20.9918ZM14.1302 15.9918C13.9231 16.0189 13.7127 15.9804 13.5285 15.8819C13.3444 15.7833 13.1957 15.6295 13.1034 15.4422C13.0111 15.2548 12.9798 15.0432 13.0139 14.8371C13.0479 14.6311 13.1457 14.4408 13.2934 14.2931C13.4411 14.1454 13.6313 14.0477 13.8374 14.0136C14.0435 13.9796 14.255 14.0109 14.4424 14.1032C14.6298 14.1955 14.7835 14.3441 14.8821 14.5283C14.9807 14.7124 15.0191 14.9228 14.992 15.1299C14.9635 15.3485 14.8635 15.5515 14.7076 15.7074C14.5517 15.8632 14.3487 15.9632 14.1302 15.9918Z" fill="black"/>
<path d="M14.7104 10.7056C15.1009 10.3151 15.1003 9.68133 14.7091 9.29007C14.3178 8.89881 13.6841 8.89822 13.2935 9.28874C12.903 9.67927 12.9036 10.313 13.2949 10.7043C13.6861 11.0955 14.3199 11.0961 14.7104 10.7056Z" fill="black"/>
<path d="M14.1302 5.9918C13.9231 6.01889 13.7127 5.98044 13.5285 5.88186C13.3444 5.78329 13.1957 5.62952 13.1034 5.44215C13.0111 5.25478 12.9798 5.04321 13.0139 4.83714C13.0479 4.63107 13.1457 4.44083 13.2934 4.29314C13.4411 4.14544 13.6313 4.0477 13.8374 4.01364C14.0435 3.97957 14.255 4.01088 14.4424 4.10318C14.6298 4.19549 14.7835 4.34414 14.8821 4.52828C14.9807 4.71243 15.0191 4.92282 14.992 5.12993C14.9635 5.34849 14.8635 5.55149 14.7076 5.70735C14.5517 5.86322 14.3487 5.96322 14.1302 5.9918ZM23.0002 23.9999C22.8024 23.9999 22.609 24.0586 22.4446 24.1685C22.2801 24.2783 22.152 24.4345 22.0763 24.6172C22.0006 24.8 21.9808 25.001 22.0194 25.195C22.058 25.389 22.1532 25.5672 22.2931 25.707C22.4329 25.8469 22.6111 25.9421 22.8051 25.9807C22.9991 26.0193 23.2001 25.9995 23.3829 25.9238C23.5656 25.8481 23.7218 25.7199 23.8316 25.5555C23.9415 25.391 24.0002 25.1977 24.0002 24.9999C24.0002 24.7347 23.8948 24.4804 23.7073 24.2928C23.5197 24.1053 23.2654 23.9999 23.0002 23.9999ZM23.0002 18.9999C22.8024 18.9999 22.609 19.0586 22.4446 19.1685C22.2801 19.2783 22.152 19.4345 22.0763 19.6172C22.0006 19.8 21.9808 20.001 22.0194 20.195C22.058 20.389 22.1532 20.5672 22.2931 20.707C22.4329 20.8469 22.6111 20.9421 22.8051 20.9807C22.9991 21.0193 23.2001 20.9995 23.3829 20.9238C23.5656 20.8481 23.7218 20.7199 23.8316 20.5555C23.9415 20.391 24.0002 20.1977 24.0002 19.9999C24.0002 19.7347 23.8948 19.4804 23.7073 19.2928C23.5197 19.1053 23.2654 18.9999 23.0002 18.9999ZM23.0002 13.9999C22.8024 13.9999 22.609 14.0586 22.4446 14.1685C22.2801 14.2783 22.152 14.4345 22.0763 14.6172C22.0006 14.8 21.9808 15.001 22.0194 15.195C22.058 15.389 22.1532 15.5672 22.2931 15.707C22.4329 15.8469 22.6111 15.9421 22.8051 15.9807C22.9991 16.0193 23.2001 15.9995 23.3829 15.9238C23.5656 15.8481 23.7218 15.7199 23.8316 15.5555C23.9415 15.391 24.0002 15.1977 24.0002 14.9999C24.0002 14.7347 23.8948 14.4804 23.7073 14.2928C23.5197 14.1053 23.2654 13.9999 23.0002 13.9999ZM19.0002 23.9999C18.8024 23.9999 18.609 24.0586 18.4446 24.1685C18.2801 24.2783 18.152 24.4345 18.0763 24.6172C18.0006 24.8 17.9808 25.001 18.0194 25.195C18.058 25.389 18.1532 25.5672 18.2931 25.707C18.4329 25.8469 18.6111 25.9421 18.8051 25.9807C18.9991 26.0193 19.2001 25.9995 19.3829 25.9238C19.5656 25.8481 19.7218 25.7199 19.8316 25.5555C19.9415 25.391 20.0002 25.1977 20.0002 24.9999C20.0002 24.7347 19.8948 24.4804 19.7073 24.2928C19.5197 24.1053 19.2654 23.9999 19.0002 23.9999ZM19.0002 18.9999C18.8024 18.9999 18.609 19.0586 18.4446 19.1685C18.2801 19.2783 18.152 19.4345 18.0763 19.6172C18.0006 19.8 17.9808 20.001 18.0194 20.195C18.058 20.389 18.1532 20.5672 18.2931 20.707C18.4329 20.8469 18.6111 20.9421 18.8051 20.9807C18.9991 21.0193 19.2001 20.9995 19.3829 20.9238C19.5656 20.8481 19.7218 20.7199 19.8316 20.5555C19.9415 20.391 20.0002 20.1977 20.0002 19.9999C20.0002 19.7347 19.8948 19.4804 19.7073 19.2928C19.5197 19.1053 19.2654 18.9999 19.0002 18.9999ZM19.0002 13.9999C18.8024 13.9999 18.609 14.0586 18.4446 14.1685C18.2801 14.2783 18.152 14.4345 18.0763 14.6172C18.0006 14.8 17.9808 15.001 18.0194 15.195C18.058 15.389 18.1532 15.5672 18.2931 15.707C18.4329 15.8469 18.6111 15.9421 18.8051 15.9807C18.9991 16.0193 19.2001 15.9995 19.3829 15.9238C19.5656 15.8481 19.7218 15.7199 19.8316 15.5555C19.9415 15.391 20.0002 15.1977 20.0002 14.9999C20.0002 14.7347 19.8948 14.4804 19.7073 14.2928C19.5197 14.1053 19.2654 13.9999 19.0002 13.9999Z" fill="black"/>
</svg>
