<svg width="18" height="17" viewBox="0 0 18 17" fill="none" xmlns="http://www.w3.org/2000/svg">
<path d="M8.93854 14.275L4.81826 16.775C4.63624 16.8916 4.44594 16.9416 4.24737 16.9249C4.04881 16.9083 3.87506 16.8416 3.72613 16.725C3.57721 16.6083 3.46138 16.4626 3.37864 16.288C3.2959 16.1133 3.27936 15.9173 3.329 15.7L4.42112 10.975L0.772436 7.79995C0.606962 7.64995 0.503707 7.47895 0.46267 7.28695C0.421632 7.09495 0.433877 6.90762 0.499405 6.72495C0.564932 6.54229 0.664216 6.39228 0.797257 6.27495C0.930297 6.15762 1.11232 6.08262 1.34332 6.04995L6.15859 5.62495L8.02016 1.17495C8.1029 0.974951 8.23131 0.824951 8.40539 0.724951C8.57947 0.624951 8.75718 0.574951 8.93854 0.574951C9.1199 0.574951 9.29762 0.624951 9.4717 0.724951C9.64577 0.824951 9.77418 0.974951 9.85692 1.17495L11.7185 5.62495L16.5338 6.04995C16.7654 6.08328 16.9474 6.15828 17.0798 6.27495C17.2122 6.39162 17.3115 6.54162 17.3777 6.72495C17.4439 6.90829 17.4564 7.09595 17.4154 7.28795C17.3744 7.47995 17.2708 7.65062 17.1046 7.79995L13.456 10.975L14.5481 15.7C14.5977 15.9166 14.5812 16.1126 14.4984 16.288C14.4157 16.4633 14.2999 16.609 14.1509 16.725C14.002 16.841 13.8283 16.9076 13.6297 16.9249C13.4311 16.9423 13.2408 16.8923 13.0588 16.775L8.93854 14.275Z" fill="black"/>
</svg>
