<svg width="27" height="28" viewBox="0 0 27 28" fill="none" xmlns="http://www.w3.org/2000/svg">
<path d="M21.7873 24.8555L20.5915 26.083C20.4713 26.2063 20.3222 26.2975 20.1576 26.3483C19.9931 26.3991 19.8185 26.4078 19.6497 26.3736C19.4809 26.3395 19.3234 26.2635 19.1916 26.1528C19.0597 26.0421 18.9577 25.9 18.8949 25.7397L15.2311 16.3774L10.7841 20.744L11.1706 24.293C11.2584 24.9834 11.191 25.4003 10.5756 26.0321L9.77065 26.8584C9.64741 26.9933 9.49346 27.0966 9.32184 27.1594C9.15022 27.2222 8.96599 27.2426 8.78477 27.2191C8.52984 27.1847 8.17388 27.0482 7.91847 26.5945L5.53484 22.4912C5.51714 22.4605 5.50078 22.4284 5.48579 22.3958C5.48393 22.3931 5.48158 22.3908 5.47887 22.3891C5.44565 22.3752 5.41322 22.3595 5.38175 22.3421L1.19583 20.0474C0.74834 19.8047 0.608587 19.4573 0.570268 19.2079C0.544491 19.0404 0.558383 18.8691 0.610828 18.7079C0.663273 18.5468 0.752808 18.4001 0.872233 18.2798L1.72212 17.4074C2.18166 16.9357 2.83937 16.684 3.44339 16.7475L6.93529 17.0423L11.2405 12.49L1.79797 9.08282C1.63603 9.02436 1.49133 8.92624 1.3771 8.79744C1.26286 8.66864 1.18273 8.51325 1.14404 8.34549C1.10535 8.17773 1.10932 8.00295 1.1556 7.83713C1.20188 7.6713 1.28899 7.51972 1.40896 7.39624L2.61777 6.15537C2.78989 5.98564 2.99803 5.85687 3.22674 5.77861C3.45545 5.70035 3.69885 5.67462 3.93887 5.70332L16.5652 6.76489L19.0901 4.03272C19.2695 3.82734 19.7923 3.28331 19.914 3.15835C22.3977 0.611549 24.7073 -0.104278 26.0934 1.24602C26.5297 1.67097 27.1687 2.63317 26.5472 4.30065C26.1809 5.28558 25.4401 6.35416 24.3459 7.47745C24.2255 7.60103 23.6967 8.13648 23.4934 8.32397L20.8278 10.9182L22.2056 23.5267C22.2399 23.7654 22.2201 24.0087 22.1477 24.2387C22.0753 24.4687 21.9521 24.6795 21.7873 24.8555Z" fill="black"/>
</svg>
