<svg width="20" height="24" viewBox="0 0 20 24" fill="none" xmlns="http://www.w3.org/2000/svg">
<path d="M2.5 24C1.8125 24 1.22417 23.7652 0.735 23.2956C0.245833 22.826 0.000833333 22.2608 0 21.6V7.2C0 6.54 0.245 5.9752 0.735 5.5056C1.225 5.036 1.81333 4.8008 2.5 4.8H5C5 3.48 5.48958 2.35 6.46875 1.41C7.44792 0.47 8.625 0 10 0C11.375 0 12.5521 0.47 13.5312 1.41C14.5104 2.35 15 3.48 15 4.8H17.5C18.1875 4.8 18.7762 5.0352 19.2662 5.5056C19.7562 5.976 20.0008 6.5408 20 7.2V21.6C20 22.26 19.7554 22.8252 19.2662 23.2956C18.7771 23.766 18.1883 24.0008 17.5 24H2.5ZM2.5 21.6H17.5V7.2H15V9.6C15 9.94 14.88 10.2252 14.64 10.4556C14.4 10.686 14.1033 10.8008 13.75 10.8C13.3967 10.7992 13.1 10.684 12.86 10.4544C12.62 10.2248 12.5 9.94 12.5 9.6V7.2H7.5V9.6C7.5 9.94 7.38 10.2252 7.14 10.4556C6.9 10.686 6.60333 10.8008 6.25 10.8C5.89667 10.7992 5.6 10.684 5.36 10.4544C5.12 10.2248 5 9.94 5 9.6V7.2H2.5V21.6ZM7.5 4.8H12.5C12.5 4.14 12.2554 3.5752 11.7662 3.1056C11.2771 2.636 10.6883 2.4008 10 2.4C9.31167 2.3992 8.72333 2.6344 8.235 3.1056C7.74667 3.5768 7.50167 4.1416 7.5 4.8Z" fill="black"/>
</svg>
