<svg width="20" height="20" viewBox="0 0 20 20" fill="none" xmlns="http://www.w3.org/2000/svg">
<path d="M17.9958 8.621V17C17.9958 17.5304 17.7851 18.0391 17.4101 18.4142C17.035 18.7893 16.5263 19 15.9958 19H4.00384C3.47358 18.9997 2.96513 18.7889 2.59028 18.4139C2.21542 18.0388 2.00484 17.5303 2.00484 17V8.621M5.50184 6.75L6.00184 1M5.50184 6.75C5.50184 9.652 9.99984 9.652 9.99984 6.75M5.50184 6.75C5.50184 9.926 0.346843 9.27 1.06884 6.502L2.11384 2.495C2.22552 2.06703 2.47592 1.68815 2.82586 1.41765C3.1758 1.14714 3.60554 1.00026 4.04784 1H15.9518C16.3941 1.00026 16.8239 1.14714 17.1738 1.41765C17.5238 1.68815 17.7742 2.06703 17.8858 2.495L18.9308 6.502C19.6528 9.271 14.4978 9.926 14.4978 6.75M9.99984 6.75V1M9.99984 6.75C9.99984 9.652 14.4978 9.652 14.4978 6.75M14.4978 6.75L13.9978 1" stroke="black" stroke-width="1.5" stroke-linecap="round" stroke-linejoin="round"/>
</svg>
