<svg width="50" height="22" viewBox="0 0 50 22" fill="none" xmlns="http://www.w3.org/2000/svg">
<path d="M0 22V20.6754C0 18.4101 1.07955 16.9127 3.23864 16.1832C5.39773 15.4538 7.34848 15.089 9.09091 15.089C10.8333 15.089 12.7841 15.4538 14.9432 16.1832C17.1023 16.9127 18.1818 18.4101 18.1818 20.6754V22H0ZM9.09091 12.7853C7.84091 12.7853 6.77121 12.3346 5.88182 11.4331C4.99242 10.5316 4.54697 9.44656 4.54545 8.17801C4.54394 6.90946 4.98939 5.8252 5.88182 4.92524C6.77424 4.02527 7.84394 3.57375 9.09091 3.57068C10.3379 3.56761 11.4083 4.01913 12.3023 4.92524C13.1962 5.83134 13.6409 6.9156 13.6364 8.17801C13.6318 9.44042 13.1871 10.5254 12.3023 11.4331C11.4174 12.3407 10.347 12.7915 9.09091 12.7853ZM19.7159 16.0681C19.2614 16.0681 18.8636 15.8953 18.5227 15.5497C18.1818 15.2042 18.0114 14.801 18.0114 14.3403C18.0114 14.1099 18.1818 13.7068 18.5227 13.1309C18.8258 12.7469 19.0341 12.3246 19.1477 11.8639C19.2614 11.4031 19.3182 10.9424 19.3182 10.4817C19.3182 10.0209 19.2614 9.57019 19.1477 9.12942C19.0341 8.68866 18.8258 8.27553 18.5227 7.89005C18.3712 7.69808 18.2485 7.49689 18.1545 7.28649C18.0606 7.07609 18.0129 6.85494 18.0114 6.62304C18.0114 6.12391 18.1727 5.71155 18.4955 5.38597C18.8182 5.06038 19.225 4.89682 19.7159 4.89529C20.0189 4.89529 20.2939 4.98206 20.5409 5.1556C20.7879 5.32914 21.0053 5.53033 21.1932 5.75916C21.6856 6.45026 22.0644 7.19895 22.3295 8.00524C22.5947 8.81152 22.7273 9.637 22.7273 10.4817C22.7273 11.3264 22.5947 12.1426 22.3295 12.9305C22.0644 13.7183 21.6856 14.4762 21.1932 15.2042C21.0038 15.4346 20.7864 15.6365 20.5409 15.8101C20.2955 15.9836 20.0205 16.0696 19.7159 16.0681ZM24.5455 21.0209C24.053 21.0209 23.6364 20.8582 23.2955 20.5326C22.9545 20.207 22.7841 19.7939 22.7841 19.2932C22.7841 19.0628 22.8318 18.8424 22.9273 18.632C23.0227 18.4216 23.1455 18.2197 23.2955 18.0262C24.2424 16.9511 24.953 15.7609 25.4273 14.4555C25.9015 13.1501 26.1379 11.8255 26.1364 10.4817C26.1348 9.13787 25.8985 7.82248 25.4273 6.5355C24.9561 5.24852 24.2455 4.06827 23.2955 2.99476C23.1439 2.80279 23.0212 2.61082 22.9273 2.41885C22.8333 2.22688 22.7856 2.01571 22.7841 1.78534C22.7841 1.28621 22.9455 0.863875 23.2682 0.518325C23.5909 0.172776 23.9977 0 24.4886 0C24.7538 0 25 0.0575923 25.2273 0.172776C25.4545 0.287959 25.6629 0.441536 25.8523 0.633508C27.1023 2.0541 28.0303 3.60908 28.6364 5.29843C29.2424 6.98778 29.5455 8.71553 29.5455 10.4817C29.5455 12.2478 29.2326 13.9855 28.6068 15.6949C27.9811 17.4042 27.0629 18.9684 25.8523 20.3874C25.6629 20.5794 25.4644 20.733 25.2568 20.8482C25.0492 20.9634 24.8121 21.0209 24.5455 21.0209ZM31.8182 22V20.6754C31.8182 18.4101 32.8977 16.9127 35.0568 16.1832C37.2159 15.4538 39.1667 15.089 40.9091 15.089C42.6515 15.089 44.6023 15.4538 46.7614 16.1832C48.9205 16.9127 50 18.4101 50 20.6754V22H31.8182ZM40.9091 12.7853C39.6591 12.7853 38.5894 12.3346 37.7 11.4331C36.8106 10.5316 36.3652 9.44656 36.3636 8.17801C36.3621 6.90946 36.8076 5.8252 37.7 4.92524C38.5924 4.02527 39.6621 3.57375 40.9091 3.57068C42.1561 3.56761 43.2265 4.01913 44.1205 4.92524C45.0144 5.83134 45.4591 6.9156 45.4545 8.17801C45.45 9.44042 45.0053 10.5254 44.1205 11.4331C43.2356 12.3407 42.1652 12.7915 40.9091 12.7853Z" fill="black"/>
</svg>
