<svg width="28" height="26" viewBox="0 0 28 26" fill="none" xmlns="http://www.w3.org/2000/svg">
<path d="M3.88889 5.33333H5.33333C6.09951 5.33333 6.83431 5.02897 7.37609 4.4872C7.91786 3.94543 8.22222 3.21063 8.22222 2.44444C8.22222 2.06135 8.3744 1.69395 8.64529 1.42307C8.91618 1.15218 9.28358 1 9.66667 1H18.3333C18.7164 1 19.0838 1.15218 19.3547 1.42307C19.6256 1.69395 19.7778 2.06135 19.7778 2.44444C19.7778 3.21063 20.0821 3.94543 20.6239 4.4872C21.1657 5.02897 21.9005 5.33333 22.6667 5.33333H24.1111C24.8773 5.33333 25.6121 5.6377 26.1539 6.17947C26.6956 6.72124 27 7.45604 27 8.22222V21.2222C27 21.9884 26.6956 22.7232 26.1539 23.265C25.6121 23.8067 24.8773 24.1111 24.1111 24.1111H3.88889C3.12271 24.1111 2.38791 23.8067 1.84614 23.265C1.30436 22.7232 1 21.9884 1 21.2222V8.22222C1 7.45604 1.30436 6.72124 1.84614 6.17947C2.38791 5.6377 3.12271 5.33333 3.88889 5.33333Z" stroke="black" stroke-width="2" stroke-linecap="round" stroke-linejoin="round"/>
<path d="M9.6665 14.0001C9.6665 15.1494 10.123 16.2516 10.9357 17.0642C11.7484 17.8769 12.8506 18.3334 13.9998 18.3334C15.1491 18.3334 16.2513 17.8769 17.064 17.0642C17.8766 16.2516 18.3332 15.1494 18.3332 14.0001C18.3332 12.8508 17.8766 11.7486 17.064 10.936C16.2513 10.1233 15.1491 9.66675 13.9998 9.66675C12.8506 9.66675 11.7484 10.1233 10.9357 10.936C10.123 11.7486 9.6665 12.8508 9.6665 14.0001Z" stroke="black" stroke-width="2" stroke-linecap="round" stroke-linejoin="round"/>
</svg>
