<svg width="24" height="20" viewBox="0 0 24 20" fill="none" xmlns="http://www.w3.org/2000/svg">
<path d="M1.5 1H3.29268L4.06098 4M4.06098 4L6.62195 14H19.939L22.5 4H4.06098Z" stroke="black" stroke-width="2" stroke-linecap="round" stroke-linejoin="round"/>
<path d="M6.62203 19C7.47067 19 8.15862 18.3284 8.15862 17.5C8.15862 16.6716 7.47067 16 6.62203 16C5.7734 16 5.08545 16.6716 5.08545 17.5C5.08545 18.3284 5.7734 19 6.62203 19Z" stroke="black" stroke-width="2" stroke-linecap="round" stroke-linejoin="round"/>
<path d="M19.9389 19C20.7876 19 21.4755 18.3284 21.4755 17.5C21.4755 16.6716 20.7876 16 19.9389 16C19.0903 16 18.4023 16.6716 18.4023 17.5C18.4023 18.3284 19.0903 19 19.9389 19Z" stroke="black" stroke-width="2" stroke-linecap="round" stroke-linejoin="round"/>
</svg>
