<?xml version="1.0" encoding="UTF-8"?>
<svg id="Layer_1" xmlns="http://www.w3.org/2000/svg" version="1.1" viewBox="0 0 242.02 231.73">
  <!-- Generator: Adobe Illustrator 29.2.1, SVG Export Plug-In . SVG Version: 2.1.0 Build 116)  -->
  <defs>
    <style>
      .st0 {
        fill: #fff;
      }
    </style>
  </defs>
  <g>
    <g>
      <polygon class="st0" points="144.9 164.2 136.39 164.2 136.39 171.55 144.9 171.55 144.9 176.06 136.39 176.06 136.39 183.41 144.9 183.41 144.9 186.33 152.92 186.33 152.92 161.46 144.9 161.46 144.9 164.2"/>
      <polygon class="st0" points="144.07 189.5 136.05 189.5 136.05 205.53 152.92 205.53 152.92 198.18 144.07 198.18 144.07 189.5"/>
      <path class="st0" d="M129.62,166.33c-.89-.86-1.92-1.54-3.09-2.05s-2.42-.75-3.76-.75-2.5.25-3.67.75c-1.17.5-2.2,1.18-3.09,2.05-.89.86-1.59,1.88-2.09,3.05-.5,1.17-.75,2.45-.75,3.84s.25,2.58.75,3.72c.5,1.14,1.2,2.13,2.09,2.96.89.84,1.92,1.49,3.09,1.96,1.17.47,2.39.71,3.67.71s2.59-.24,3.76-.71c1.17-.47,2.2-1.13,3.09-1.96.89-.83,1.59-1.82,2.09-2.96.5-1.14.75-2.38.75-3.72s-.25-2.67-.75-3.84c-.5-1.17-1.2-2.18-2.09-3.05ZM124.57,174.89c-.42.5-1.02.75-1.8.75-.61,0-1.16-.25-1.63-.75-.47-.5-.71-1.06-.71-1.67,0-.67.24-1.24.71-1.71s1.01-.71,1.63-.71c.78,0,1.38.24,1.8.71.42.47.63,1.04.63,1.71,0,.61-.21,1.17-.63,1.67Z"/>
    </g>
    <g>
      <polygon class="st0" points="174.79 179.4 182.81 179.4 182.81 162.21 164.52 162.21 164.52 169.55 174.79 169.55 174.79 179.4"/>
      <polygon class="st0" points="158.76 192.01 169.95 192.01 169.95 204.79 177.88 204.79 177.88 192.01 188.99 192.01 188.99 184.66 158.76 184.66 158.76 192.01"/>
    </g>
    <g>
      <polygon class="st0" points="211.53 194.35 211.53 186.92 203.6 186.92 203.6 194.35 192.24 194.35 192.24 201.7 222.46 201.7 222.46 194.35 211.53 194.35"/>
      <polygon class="st0" points="207.52 180.41 214.62 186.84 219.63 181.24 211.53 173.89 211.53 165.29 203.51 165.29 203.51 173.81 195.33 181.16 200.51 186.84 207.52 180.41"/>
    </g>
  </g>
  <g>
    <path class="st0" d="M163.37,114.97c-1.89-1.83-4.07-3.28-6.55-4.34s-5.13-1.59-7.97-1.59-5.31.53-7.79,1.59c-2.48,1.06-4.66,2.51-6.55,4.34-1.89,1.83-3.36,3.98-4.43,6.46s-1.59,5.2-1.59,8.14.53,5.46,1.59,7.88c1.06,2.42,2.54,4.52,4.43,6.29,1.89,1.77,4.07,3.16,6.55,4.16,2.48,1,5.07,1.5,7.79,1.5s5.49-.5,7.97-1.5c2.48-1,4.66-2.39,6.55-4.16,1.89-1.77,3.36-3.87,4.43-6.29,1.06-2.42,1.59-5.05,1.59-7.88s-.53-5.67-1.59-8.14c-1.06-2.48-2.54-4.63-4.43-6.46ZM152.66,133.12c-.89,1.06-2.15,1.59-3.81,1.59-1.3,0-2.45-.53-3.45-1.59-1-1.06-1.5-2.24-1.5-3.54,0-1.42.5-2.63,1.5-3.63,1-1,2.15-1.5,3.45-1.5,1.65,0,2.92.5,3.81,1.5.89,1,1.33,2.21,1.33,3.63,0,1.3-.44,2.48-1.33,3.54Z"/>
    <polygon class="st0" points="147.97 68.14 131.15 68.14 131.15 85.67 116.1 85.67 116.1 101.25 180.19 101.25 180.19 85.67 147.97 85.67 147.97 68.14"/>
    <polygon class="st0" points="155.05 71.51 172.05 71.51 172.05 35.03 116.1 35.03 116.1 50.61 155.05 50.61 155.05 71.51"/>
  </g>
  <g>
    <path class="st0" d="M91.48,165.91c-1.89-1.83-4.07-3.28-6.55-4.34-2.48-1.06-5.13-1.59-7.97-1.59s-5.31.53-7.79,1.59-4.66,2.51-6.55,4.34c-1.89,1.83-3.36,3.98-4.43,6.46-1.06,2.48-1.59,5.2-1.59,8.14s.53,5.46,1.59,7.88c1.06,2.42,2.54,4.52,4.43,6.29,1.89,1.77,4.07,3.16,6.55,4.16,2.48,1,5.07,1.5,7.79,1.5s5.49-.5,7.97-1.5c2.48-1,4.66-2.39,6.55-4.16,1.89-1.77,3.36-3.87,4.43-6.29,1.06-2.42,1.59-5.05,1.59-7.88s-.53-5.67-1.59-8.14c-1.06-2.48-2.54-4.63-4.43-6.46ZM80.77,184.06c-.89,1.06-2.16,1.59-3.81,1.59-1.3,0-2.45-.53-3.45-1.59-1-1.06-1.51-2.24-1.51-3.54,0-1.42.5-2.63,1.51-3.63,1-1,2.15-1.51,3.45-1.51,1.65,0,2.92.5,3.81,1.51.89,1,1.33,2.21,1.33,3.63,0,1.3-.44,2.48-1.33,3.54Z"/>
    <polygon class="st0" points="71.83 130.77 54.83 115.36 54.83 115.19 69.88 115.19 69.88 99.6 54.3 99.6 54.3 85.97 37.48 85.97 37.48 99.6 21.72 99.6 21.72 115.19 37.3 115.19 37.3 115.36 20.31 130.59 31.28 142.63 46.16 129 61.21 142.63 71.83 130.77"/>
    <polygon class="st0" points="110.65 85.97 99.98 85.97 89.32 85.97 82.99 85.97 82.99 152.19 99.98 152.19 99.98 101.55 110.65 101.55 110.65 85.97"/>
  </g>
</svg>