<svg width="148" height="148" viewBox="0 0 148 148" fill="none" xmlns="http://www.w3.org/2000/svg">
<path d="M7.99174 139.831L51.2 96.8687M115.37 71.2624L101.143 113.885C100.916 114.568 100.527 115.187 100.01 115.688C99.4924 116.189 98.8615 116.558 98.1707 116.764L10.9566 142.651C10.1709 142.884 9.33622 142.897 8.54342 142.689C7.75062 142.481 7.03007 142.061 6.4602 141.472C5.89033 140.884 5.49296 140.151 5.31134 139.353C5.12972 138.554 5.17081 137.722 5.43013 136.945L33.7497 52.1176C33.9527 51.5085 34.2845 50.9502 34.7226 50.4805C35.1607 50.0108 35.6949 49.6407 36.2889 49.3954L76.5203 32.8535C77.3382 32.5162 78.2378 32.4282 79.1057 32.6008C79.9736 32.7733 80.7709 33.1986 81.3971 33.8231L114.287 66.6831C114.876 67.2707 115.289 68.0104 115.48 68.8191C115.671 69.6279 115.633 70.4739 115.37 71.2624Z" stroke="black" stroke-width="9" stroke-linecap="round" stroke-linejoin="round"/>
<path d="M116.997 69.0945L138.705 47.3961C141.583 44.5194 143.2 40.6183 143.2 36.5507C143.2 32.4831 141.583 28.582 138.705 25.7053L122.432 9.42951C121.006 8.0044 119.313 6.87391 117.45 6.10261C115.587 5.33131 113.59 4.93433 111.574 4.93433C109.557 4.93433 107.56 5.33131 105.697 6.10261C103.834 6.87391 102.141 8.0044 100.716 9.42951L79.0077 31.128M70.8557 77.2248C69.7861 76.1566 68.5165 75.3093 67.1193 74.7314C65.7221 74.1535 64.2246 73.8563 62.7124 73.8567C61.2002 73.857 59.7029 74.155 58.306 74.7335C56.909 75.3121 55.6398 76.1599 54.5707 77.2286C53.5017 78.2973 52.6538 79.5659 52.0755 80.962C51.4971 82.3581 51.1996 83.8544 51.2 85.3654C51.2003 86.8763 51.4985 88.3725 52.0775 89.7683C52.6566 91.1641 53.505 92.4324 54.5746 93.5005C56.7346 95.6578 59.6638 96.8694 62.7178 96.8686C65.7719 96.8679 68.7005 95.655 70.8595 93.4967C73.0185 91.3384 74.231 88.4115 74.2303 85.3599C74.2296 82.3084 73.0157 79.382 70.8557 77.2248Z" stroke="black" stroke-width="9" stroke-linecap="round" stroke-linejoin="round"/>
</svg>
