<svg width="127" height="140" viewBox="0 0 127 140" fill="none" xmlns="http://www.w3.org/2000/svg">
<path d="M82.384 10.9173L38.9988 31.679C35.7242 33.2696 31.9999 33.6874 28.4525 32.8621C26.9558 32.4921 25.4433 32.1885 23.9196 31.952C12.0167 30.6065 4.60107 39.9928 4.60107 50.7897V56.7179C4.60107 67.5082 12.0167 76.9011 23.9196 75.5425C25.4449 75.3178 26.9578 75.0163 28.4525 74.639C32.0006 73.8157 35.725 74.2358 38.9988 75.8285L82.384 96.5837C92.3433 101.348 97.3262 103.734 102.877 101.875C108.433 100.016 110.338 96.0312 114.147 88.0619C119.316 77.3586 122 65.6324 122 53.7538C122 41.8751 119.316 30.149 114.147 19.4456C110.338 11.4763 108.433 7.48519 102.877 5.63263C97.3262 3.77357 92.3433 6.14615 82.384 10.9173Z" stroke="black" stroke-width="9" stroke-linecap="round" stroke-linejoin="round"/>
<path d="M33.9506 73.2479V34.2466M59.7652 127.005L50.0407 135C28.1133 117.67 30.7939 109.409 30.7939 76.498H38.19C41.1902 95.0887 48.2667 103.903 58.0368 110.28C64.0502 114.206 65.2894 122.468 59.7652 127.005Z" stroke="black" stroke-width="9" stroke-linecap="round" stroke-linejoin="round"/>
</svg>
