<svg width="122" height="122" viewBox="0 0 122 122" fill="none" xmlns="http://www.w3.org/2000/svg">
<path d="M79.6667 36.1111H79.7289M5 23.6667C5 18.716 6.96666 13.968 10.4673 10.4673C13.968 6.96666 18.716 5 23.6667 5H98.3333C103.284 5 108.032 6.96666 111.533 10.4673C115.033 13.968 117 18.716 117 23.6667V98.3333C117 103.284 115.033 108.032 111.533 111.533C108.032 115.033 103.284 117 98.3333 117H23.6667C18.716 117 13.968 115.033 10.4673 111.533C6.96666 108.032 5 103.284 5 98.3333V23.6667Z" stroke="black" stroke-width="9" stroke-linecap="round" stroke-linejoin="round"/>
<path d="M5 85.8895L36.1111 54.7784C41.8853 49.222 49.0036 49.222 54.7778 54.7784L85.8889 85.8895" stroke="black" stroke-width="9" stroke-linecap="round" stroke-linejoin="round"/>
<path d="M73.4443 73.445L79.6666 67.2228C85.4408 61.6663 92.559 61.6663 98.3332 67.2228L117 85.8894" stroke="black" stroke-width="9" stroke-linecap="round" stroke-linejoin="round"/>
</svg>
