<svg width="28" height="28" viewBox="0 0 28 28" fill="none" xmlns="http://www.w3.org/2000/svg">
<mask id="path-1-outside-1_86_119" maskUnits="userSpaceOnUse" x="0" y="0" width="28" height="28" fill="black">
<rect fill="white" width="28" height="28"/>
<path d="M11.4812 14.429L13.8131 16.7592C14.0482 17.016 14.3494 17.1444 14.7166 17.1444C15.0828 17.1444 15.3937 17.016 15.6494 16.7592L21.3125 11.1286V14.0406C21.3125 14.2508 21.39 14.4322 21.5449 14.585C21.6998 14.7367 21.8932 14.8125 22.125 14.8125C22.3352 14.8125 22.5231 14.735 22.6889 14.5801C22.8546 14.4252 22.9375 14.2318 22.9375 14V9.6255C22.9375 9.268 22.8075 8.96033 22.5475 8.7025C22.2886 8.4425 21.9809 8.3125 21.6245 8.3125H17.2094C16.9992 8.3125 16.8183 8.39537 16.6666 8.56112C16.515 8.72687 16.4386 8.91483 16.4375 9.125C16.4375 9.35683 16.515 9.55021 16.6699 9.70512C16.8248 9.86004 17.0182 9.9375 17.25 9.9375H20.1214L14.7312 15.4007L12.401 13.0689C12.1442 12.8067 11.8328 12.6756 11.4666 12.6756C11.0994 12.6756 10.7982 12.8067 10.5631 13.0689L5.94975 17.6514C5.79158 17.8236 5.7125 18.0202 5.7125 18.2412C5.7125 18.4622 5.79158 18.6486 5.94975 18.8002C6.12308 18.979 6.32025 19.0684 6.54125 19.0684C6.76225 19.0684 6.94858 18.979 7.10025 18.8002L11.4812 14.429ZM3.626 27C2.87742 27 2.25287 26.7497 1.75237 26.2492C1.25187 25.7487 1.00108 25.1237 1 24.374V3.626C1 2.87742 1.25079 2.25287 1.75237 1.75237C2.25396 1.25187 2.8785 1.00108 3.626 1H24.3756C25.1231 1 25.7477 1.25079 26.2492 1.75237C26.7508 2.25396 27.0011 2.8785 27 3.626V24.3756C27 25.1231 26.7497 25.7477 26.2492 26.2492C25.7487 26.7508 25.1237 27.0011 24.374 27H3.626ZM3.626 25.375H24.3756C24.6248 25.375 24.8539 25.271 25.063 25.063C25.2721 24.855 25.3761 24.6253 25.375 24.374V3.626C25.375 3.37575 25.271 3.14608 25.063 2.937C24.855 2.72792 24.6253 2.62392 24.374 2.625H3.626C3.37575 2.625 3.14608 2.729 2.937 2.937C2.72792 3.145 2.62392 3.37467 2.625 3.626V24.3756C2.625 24.6248 2.729 24.8539 2.937 25.063C3.145 25.2721 3.37412 25.3761 3.62437 25.375"/>
</mask>
<path d="M11.4812 14.429L13.8131 16.7592C14.0482 17.016 14.3494 17.1444 14.7166 17.1444C15.0828 17.1444 15.3937 17.016 15.6494 16.7592L21.3125 11.1286V14.0406C21.3125 14.2508 21.39 14.4322 21.5449 14.585C21.6998 14.7367 21.8932 14.8125 22.125 14.8125C22.3352 14.8125 22.5231 14.735 22.6889 14.5801C22.8546 14.4252 22.9375 14.2318 22.9375 14V9.6255C22.9375 9.268 22.8075 8.96033 22.5475 8.7025C22.2886 8.4425 21.9809 8.3125 21.6245 8.3125H17.2094C16.9992 8.3125 16.8183 8.39537 16.6666 8.56112C16.515 8.72687 16.4386 8.91483 16.4375 9.125C16.4375 9.35683 16.515 9.55021 16.6699 9.70512C16.8248 9.86004 17.0182 9.9375 17.25 9.9375H20.1214L14.7312 15.4007L12.401 13.0689C12.1442 12.8067 11.8328 12.6756 11.4666 12.6756C11.0994 12.6756 10.7982 12.8067 10.5631 13.0689L5.94975 17.6514C5.79158 17.8236 5.7125 18.0202 5.7125 18.2412C5.7125 18.4622 5.79158 18.6486 5.94975 18.8002C6.12308 18.979 6.32025 19.0684 6.54125 19.0684C6.76225 19.0684 6.94858 18.979 7.10025 18.8002L11.4812 14.429ZM3.626 27C2.87742 27 2.25287 26.7497 1.75237 26.2492C1.25187 25.7487 1.00108 25.1237 1 24.374V3.626C1 2.87742 1.25079 2.25287 1.75237 1.75237C2.25396 1.25187 2.8785 1.00108 3.626 1H24.3756C25.1231 1 25.7477 1.25079 26.2492 1.75237C26.7508 2.25396 27.0011 2.8785 27 3.626V24.3756C27 25.1231 26.7497 25.7477 26.2492 26.2492C25.7487 26.7508 25.1237 27.0011 24.374 27H3.626ZM3.626 25.375H24.3756C24.6248 25.375 24.8539 25.271 25.063 25.063C25.2721 24.855 25.3761 24.6253 25.375 24.374V3.626C25.375 3.37575 25.271 3.14608 25.063 2.937C24.855 2.72792 24.6253 2.62392 24.374 2.625H3.626C3.37575 2.625 3.14608 2.729 2.937 2.937C2.72792 3.145 2.62392 3.37467 2.625 3.626V24.3756C2.625 24.6248 2.729 24.8539 2.937 25.063C3.145 25.2721 3.37412 25.3761 3.62437 25.375" fill="black"/>
<path d="M2.525 2.625V25.375H2.725V2.625H2.525ZM11.4812 14.429L11.6226 14.2875L11.4814 14.1464L11.34 14.2874L11.4812 14.429ZM13.8131 16.7592L13.9608 16.6241L13.9545 16.6178L13.8131 16.7592ZM15.6494 16.7592L15.5084 16.6174L15.5077 16.6181L15.6494 16.7592ZM21.3125 11.1286H21.5125V10.6477L21.1715 10.9868L21.3125 11.1286ZM21.5449 14.585L21.4044 14.7274L21.405 14.7279L21.5449 14.585ZM22.9375 14L22.7375 14L22.9375 14ZM22.5475 8.7025L22.4058 8.84363L22.4067 8.84451L22.5475 8.7025ZM16.4375 9.125L16.2375 9.12397V9.125H16.4375ZM17.25 9.9375V10.1375V9.9375ZM20.1214 9.9375L20.2637 10.078L20.5997 9.7375H20.1214V9.9375ZM14.7312 15.4007L14.5898 15.5421L14.7322 15.6846L14.8736 15.5412L14.7312 15.4007ZM12.401 13.0689L12.2581 13.2088L12.2595 13.2102L12.401 13.0689ZM10.5631 13.0689L10.7043 13.211L10.712 13.2024L10.5631 13.0689ZM5.94975 17.6514L5.80865 17.5093L5.80243 17.5161L5.94975 17.6514ZM5.94975 18.8002L6.09342 18.6609L6.08817 18.6559L5.94975 18.8002ZM7.10025 18.8002L6.95899 18.6587L6.95311 18.6645L6.94775 18.6709L7.10025 18.8002ZM1 24.374L0.8 24.374L0.8 24.3743L1 24.374ZM3.626 1V0.8L3.62571 0.8L3.626 1ZM27 3.626L26.8 3.62571V3.626H27ZM24.374 27L24.3743 26.8H24.374V27ZM25.375 24.374L25.175 24.374L25.175 24.3749L25.375 24.374ZM24.374 2.625L24.374 2.825L24.3749 2.825L24.374 2.625ZM2.625 3.626L2.825 3.626L2.825 3.62514L2.625 3.626ZM11.3399 14.5705L13.6718 16.9007L13.9545 16.6178L11.6226 14.2875L11.3399 14.5705ZM13.6656 16.8943C13.9409 17.1949 14.2967 17.3444 14.7166 17.3444V16.9444C14.402 16.9444 14.1555 16.8371 13.9606 16.6242L13.6656 16.8943ZM14.7166 17.3444C15.1353 17.3444 15.4975 17.1953 15.7911 16.9004L15.5077 16.6181C15.29 16.8367 15.0302 16.9444 14.7166 16.9444V17.3444ZM15.7904 16.9011L21.4535 11.2705L21.1715 10.9868L15.5084 16.6174L15.7904 16.9011ZM21.1125 11.1286V14.0406H21.5125V11.1286H21.1125ZM21.1125 14.0406C21.1125 14.3064 21.2129 14.5386 21.4044 14.7274L21.6853 14.4426C21.567 14.3259 21.5125 14.1952 21.5125 14.0406H21.1125ZM21.405 14.7279C21.6 14.9189 21.8449 15.0125 22.125 15.0125V14.6125C21.9415 14.6125 21.7996 14.5544 21.6848 14.4421L21.405 14.7279ZM22.125 15.0125C22.3901 15.0125 22.6259 14.9128 22.8254 14.7262L22.5523 14.434C22.4204 14.5573 22.2802 14.6125 22.125 14.6125V15.0125ZM22.8254 14.7262C23.0326 14.5326 23.1375 14.2858 23.1375 14L22.7375 14C22.7375 14.1778 22.6766 14.3178 22.5523 14.434L22.8254 14.7262ZM23.1375 14V9.6255H22.7375V14H23.1375ZM23.1375 9.6255C23.1375 9.21323 22.9852 8.85485 22.6883 8.56049L22.4067 8.84451C22.6298 9.06581 22.7375 9.32276 22.7375 9.6255H23.1375ZM22.6892 8.56137C22.394 8.26493 22.0358 8.1125 21.6245 8.1125V8.5125C21.926 8.5125 22.1832 8.62007 22.4058 8.84362L22.6892 8.56137ZM21.6245 8.1125H17.2094V8.5125H21.6245V8.1125ZM17.2094 8.1125C16.9389 8.1125 16.7057 8.22216 16.5191 8.42611L16.8142 8.69614C16.9309 8.56858 17.0595 8.5125 17.2094 8.5125V8.1125ZM16.5191 8.42611C16.3364 8.62571 16.2389 8.86057 16.2375 9.12397L16.6375 9.12603C16.6383 8.9691 16.6935 8.82803 16.8142 8.69614L16.5191 8.42611ZM16.2375 9.125C16.2375 9.40645 16.3337 9.65177 16.5285 9.84655L16.8113 9.5637C16.6962 9.44865 16.6375 9.30722 16.6375 9.125H16.2375ZM16.5285 9.84655C16.7232 10.0413 16.9685 10.1375 17.25 10.1375L17.25 9.7375C17.0678 9.7375 16.9263 9.67876 16.8113 9.5637L16.5285 9.84655ZM17.25 10.1375H20.1214V9.7375H17.25V10.1375ZM19.979 9.79703L14.5889 15.2603L14.8736 15.5412L20.2637 10.078L19.979 9.79703ZM14.8727 15.2594L12.5425 12.9275L12.2595 13.2102L14.5898 15.5421L14.8727 15.2594ZM12.5439 12.9289C12.2496 12.6284 11.8867 12.4756 11.4666 12.4756V12.8756C11.7789 12.8756 12.0389 12.985 12.2581 13.2088L12.5439 12.9289ZM11.4666 12.4756C11.0453 12.4756 10.6891 12.6289 10.4142 12.9354L10.712 13.2024C10.9074 12.9846 11.1534 12.8756 11.4666 12.8756V12.4756ZM10.4222 12.927L5.8088 17.5095L6.0907 17.7933L10.7041 13.2108L10.4222 12.927ZM5.80243 17.5161C5.61254 17.7229 5.5125 17.967 5.5125 18.2412H5.9125C5.9125 18.0734 5.97062 17.9243 6.09706 17.7866L5.80243 17.5161ZM5.5125 18.2412C5.5125 18.5162 5.61344 18.7549 5.81133 18.9446L6.08817 18.6559C5.96972 18.5423 5.9125 18.4083 5.9125 18.2412H5.5125ZM5.80617 18.9395C6.01194 19.1517 6.25906 19.2684 6.54125 19.2684V18.8684C6.38144 18.8684 6.23422 18.8063 6.09333 18.661L5.80617 18.9395ZM6.54125 19.2684C6.82493 19.2684 7.06572 19.1501 7.25275 18.9296L6.94775 18.6709C6.83145 18.8079 6.69956 18.8684 6.54125 18.8684V19.2684ZM7.24151 18.9418L11.6225 14.5706L11.34 14.2874L6.95899 18.6587L7.24151 18.9418ZM3.626 26.8C2.92707 26.8 2.35446 26.5685 1.8938 26.1078L1.61095 26.3907C2.15129 26.931 2.82777 27.2 3.626 27.2V26.8ZM1.8938 26.1078C1.43312 25.6471 1.20101 25.0739 1.2 24.3737L0.8 24.3743C0.801155 25.1734 1.07063 25.8503 1.61095 26.3907L1.8938 26.1078ZM1.2 24.374V3.626H0.8V24.374H1.2ZM1.2 3.626C1.2 2.9272 1.43196 2.35464 1.89364 1.89395L1.61111 1.6108C1.06963 2.15111 0.8 2.82763 0.8 3.626H1.2ZM1.89364 1.89395C2.35558 1.43301 2.92843 1.20101 3.62629 1.2L3.62571 0.8C2.82857 0.801155 2.15234 1.07074 1.61111 1.6108L1.89364 1.89395ZM3.626 1.2H24.3756V0.8H3.626V1.2ZM24.3756 1.2C25.0733 1.2 25.6459 1.4319 26.1078 1.8938L26.3907 1.61095C25.8494 1.06968 25.173 0.8 24.3756 0.8V1.2ZM26.1078 1.8938C26.5696 2.35561 26.801 2.92817 26.8 3.62571L27.2 3.62629C27.2012 2.82883 26.932 2.1523 26.3907 1.61095L26.1078 1.8938ZM26.8 3.626V24.3756H27.2V3.626H26.8ZM26.8 24.3756C26.8 25.0734 26.5685 25.6461 26.1077 26.108L26.3908 26.3905C26.931 25.8492 27.2 25.1729 27.2 24.3756H26.8ZM26.1077 26.108C25.6471 26.5695 25.0742 26.801 24.3743 26.8L24.3737 27.2C25.1732 27.2012 25.8504 26.9321 26.3908 26.3905L26.1077 26.108ZM24.374 26.8H3.626V27.2H24.374V26.8ZM3.626 25.575H24.3756V25.175H3.626V25.575ZM24.3756 25.575C24.6872 25.575 24.9649 25.4427 25.2041 25.2048L24.9219 24.9212C24.7429 25.0993 24.5623 25.175 24.3756 25.175V25.575ZM25.2041 25.2048C25.444 24.9661 25.5763 24.6872 25.575 24.3731L25.175 24.3749C25.1758 24.5634 25.1002 24.7439 24.9219 24.9212L25.2041 25.2048ZM25.575 24.374V3.626H25.175V24.374H25.575ZM25.575 3.626C25.575 3.31354 25.4429 3.03531 25.2048 2.79595L24.9212 3.07805C25.0991 3.25685 25.175 3.43796 25.175 3.626H25.575ZM25.2048 2.79595C24.9661 2.55603 24.6872 2.42365 24.3731 2.425L24.3749 2.825C24.5634 2.82419 24.7439 2.89981 24.9212 3.07805L25.2048 2.79595ZM24.374 2.425H3.626V2.825H24.374V2.425ZM3.626 2.425C3.31354 2.425 3.03531 2.55709 2.79595 2.79521L3.07805 3.07879C3.25685 2.90091 3.43796 2.825 3.626 2.825V2.425ZM2.79595 2.79521C2.55603 3.03389 2.42365 3.31275 2.425 3.62686L2.825 3.62514C2.82419 3.43658 2.89981 3.25611 3.07805 3.07879L2.79595 2.79521ZM2.425 3.626V24.3756H2.825V3.626H2.425ZM2.425 24.3756C2.425 24.6872 2.55728 24.9649 2.79521 25.2041L3.07879 24.9219C2.90072 24.7429 2.825 24.5623 2.825 24.3756H2.425ZM2.79521 25.2041C3.03369 25.4438 3.31197 25.5764 3.62524 25.575L3.62351 25.175C3.43628 25.1758 3.25631 25.1004 3.07879 24.9219L2.79521 25.2041Z" fill="black" mask="url(#path-1-outside-1_86_119)"/>
</svg>
