<?xml version="1.0" encoding="UTF-8"?>
<svg id="_레이어_1" data-name="레이어_1" xmlns="http://www.w3.org/2000/svg" version="1.1" viewBox="0 0 429 176">
  <!-- Generator: Adobe Illustrator 29.2.1, SVG Export Plug-In . SVG Version: 2.1.0 Build 116)  -->
  <defs>
    <style>
      .st0 {
        fill: #0e66aa;
      }

      .st1 {
        fill: #040000;
      }
    </style>
  </defs>
  <g>
    <path class="st0" d="M164.6,108.36c-1.89-1.83-4.07-3.28-6.55-4.34s-5.13-1.59-7.97-1.59-5.31.53-7.79,1.59c-2.48,1.06-4.66,2.51-6.55,4.34-1.89,1.83-3.36,3.98-4.43,6.46s-1.59,5.2-1.59,8.14.53,5.46,1.59,7.88c1.06,2.42,2.54,4.52,4.43,6.29,1.89,1.77,4.07,3.16,6.55,4.16,2.48,1,5.07,1.5,7.79,1.5s5.49-.5,7.97-1.5c2.48-1,4.66-2.39,6.55-4.16,1.89-1.77,3.36-3.87,4.43-6.29,1.06-2.42,1.59-5.05,1.59-7.88s-.53-5.67-1.59-8.14c-1.06-2.48-2.54-4.63-4.43-6.46ZM153.89,126.5c-.89,1.06-2.15,1.59-3.81,1.59-1.3,0-2.45-.53-3.45-1.59-1-1.06-1.5-2.24-1.5-3.54,0-1.42.5-2.63,1.5-3.63,1-1,2.15-1.5,3.45-1.5,1.65,0,2.92.5,3.81,1.5.89,1,1.33,2.21,1.33,3.63,0,1.3-.44,2.48-1.33,3.54Z"/>
    <polygon class="st0" points="149.2 61.52 132.38 61.52 132.38 79.05 117.33 79.05 117.33 94.63 181.42 94.63 181.42 79.05 149.2 79.05 149.2 61.52"/>
    <polygon class="st0" points="156.28 64.89 173.28 64.89 173.28 28.41 117.33 28.41 117.33 43.99 156.28 43.99 156.28 64.89"/>
  </g>
  <g>
    <g>
      <polygon class="st1" points="252.79 58.25 235.48 58.25 235.48 73.18 252.79 73.18 252.79 82.35 235.48 82.35 235.48 97.28 252.79 97.28 252.79 103.22 269.08 103.22 269.08 52.67 252.79 52.67 252.79 58.25"/>
      <polygon class="st1" points="251.09 109.67 234.8 109.67 234.8 142.26 269.08 142.26 269.08 127.33 251.09 127.33 251.09 109.67"/>
      <path class="st1" d="M221.73,62.57c-1.81-1.75-3.9-3.14-6.28-4.16s-4.92-1.53-7.64-1.53-5.09.51-7.47,1.53c-2.38,1.02-4.47,2.41-6.28,4.16-1.81,1.76-3.22,3.82-4.24,6.2-1.02,2.38-1.53,4.98-1.53,7.81s.51,5.24,1.53,7.55c1.02,2.32,2.43,4.33,4.24,6.03,1.81,1.7,3.9,3.03,6.28,3.99,2.38.96,4.86,1.44,7.47,1.44s5.26-.48,7.64-1.44c2.38-.96,4.47-2.29,6.28-3.99,1.81-1.7,3.23-3.7,4.24-6.03,1.02-2.32,1.53-4.84,1.53-7.55s-.51-5.43-1.53-7.81c-1.02-2.38-2.43-4.44-4.24-6.2ZM211.46,79.97c-.85,1.02-2.07,1.53-3.65,1.53-1.25,0-2.35-.51-3.31-1.53-.96-1.02-1.44-2.15-1.44-3.39,0-1.36.48-2.52,1.44-3.48s2.06-1.44,3.31-1.44c1.58,0,2.8.48,3.65,1.44.85.96,1.27,2.12,1.27,3.48,0,1.25-.42,2.38-1.27,3.39Z"/>
    </g>
    <g>
      <polygon class="st1" points="313.55 89.15 329.84 89.15 329.84 54.18 292.67 54.18 292.67 69.12 313.55 69.12 313.55 89.15"/>
      <polygon class="st1" points="280.96 114.78 303.7 114.78 303.7 140.75 319.83 140.75 319.83 114.78 342.4 114.78 342.4 99.84 280.96 99.84 280.96 114.78"/>
    </g>
    <g>
      <polygon class="st1" points="388.23 119.53 388.23 104.42 372.1 104.42 372.1 119.53 349.02 119.53 349.02 134.47 410.46 134.47 410.46 119.53 388.23 119.53"/>
      <polygon class="st1" points="380.08 91.19 394.51 104.25 404.69 92.88 388.23 77.95 388.23 60.46 371.93 60.46 371.93 77.78 355.3 92.71 365.82 104.25 380.08 91.19"/>
    </g>
  </g>
  <g>
    <path class="st1" d="M193.6,43.46h-4.69v-12.54h4.69c3.13,0,5,2.91,5,6.25s-1.75,6.28-5,6.28ZM192.83,32.31h-2.12v9.77h2.12c2.9,0,4-2.1,4-4.91s-1.1-4.86-4-4.86Z"/>
    <path class="st1" d="M202.88,43.44h-1.94v-12.54h1.94v12.54Z"/>
    <path class="st1" d="M215.64,43.44h-1.07l-.31-1.61c-1.16,1.37-2.4,1.91-3.57,1.91-3.42,0-5.4-3-5.4-6.45s2.03-6.45,5.43-6.45c2.64,0,4.43,1.18,4.8,4.16v-.07h-1.75v.04c-.21-1.63-1.16-2.76-3.09-2.76-2.46,0-3.63,2.51-3.63,5.07s1.16,5.06,3.63,5.06c2.06,0,3.19-1.58,3.37-3.95h-3.09v-1.22h4.67v6.27Z"/>
    <path class="st1" d="M219.89,43.44h-1.94v-12.54h1.94v12.54Z"/>
    <path class="st1" d="M231.31,32.4h-3.7v11.06h-1.79v-11.06h-3.7v-1.48h9.19v1.48Z"/>
    <path class="st1" d="M242.46,43.46h-1.97l-1.12-3.7h-4.91l-1.12,3.7h-1.89l4.51-12.54h2.01l4.49,12.54ZM238.85,38.51l-1.9-6.22-1.97,6.22h3.87Z"/>
    <path class="st1" d="M251.8,43.46h-7.85v-12.54h1.84v11.06h6.01v1.48Z"/>
    <path class="st1" d="M267.8,38.73l-.03.27c-.3,2.7-2.06,4.57-4.78,4.57-3.43,0-5.42-2.97-5.42-6.36s1.99-6.37,5.42-6.37c2.49,0,4.61,1.36,4.76,3.76l.02.24h-1.78v-.28c-.37-1.36-1.21-2.33-3-2.33-2.48-.01-3.64,2.43-3.64,4.98s1.16,4.94,3.64,4.94c1.83,0,2.83-1.22,3.03-3.13l.03-.28h1.75Z"/>
    <path class="st1" d="M274.37,43.64c-3.4,0-5.39-3.01-5.39-6.45s1.98-6.43,5.39-6.43,5.37,3,5.37,6.43-1.97,6.45-5.37,6.45ZM274.37,32.13c-2.46,0-3.61,2.48-3.61,5.06s1.15,5.06,3.61,5.06,3.61-2.52,3.61-5.06-1.15-5.06-3.61-5.06Z"/>
    <path class="st1" d="M293.03,43.44h-1.67v-10.98l-3.4,10.98h-1.48l-3.42-11v11h-1.66v-12.52h2.6l3.25,10.52,3.18-10.52h2.6v12.52Z"/>
    <path class="st1" d="M306.96,43.44h-1.67v-10.98l-3.4,10.98h-1.48l-3.42-11v11h-1.66v-12.52h2.6l3.25,10.52,3.18-10.52h2.6v12.52Z"/>
    <path class="st1" d="M317.62,43.44h-8.34v-12.52h8.24v1.48h-6.42v3.88h5.92v1.4h-5.92v4.28h6.52v1.48Z"/>
    <path class="st1" d="M327.53,43.31c-.28-.54-.3-1.18-.31-1.73-.04-2.72-1.04-3.4-2.87-3.4h-2.88v5.12h-1.87v-12.36h5.28c2.16,0,4.22,1.24,4.22,3.31,0,2.28-1.37,2.79-1.61,3.31,1.54.78,1.4,2.52,1.4,2.52-.01,1.58.12,2.78.54,3.22h-1.91ZM324.66,32.31h-3.19v4.63h3.22c1.98,0,2.54-.93,2.54-2.36,0-1.72-1-2.27-2.57-2.27Z"/>
    <path class="st1" d="M341.21,38.73l-.03.27c-.3,2.7-2.06,4.57-4.78,4.57-3.43,0-5.42-2.97-5.42-6.36s1.99-6.37,5.42-6.37c2.49,0,4.61,1.36,4.76,3.76l.02.24h-1.78v-.28c-.37-1.36-1.21-2.33-3-2.33-2.48-.01-3.64,2.43-3.64,4.98s1.16,4.94,3.64,4.94c1.83,0,2.83-1.22,3.03-3.13l.03-.28h1.75Z"/>
    <path class="st1" d="M351.1,43.44h-8.34v-12.52h8.24v1.48h-6.42v3.88h5.92v1.4h-5.92v4.28h6.52v1.48Z"/>
    <path class="st1" d="M364.83,43.46h-7.85v-12.54h1.84v11.06h6.01v1.48Z"/>
    <path class="st1" d="M377.17,43.46h-1.97l-1.12-3.7h-4.91l-1.12,3.7h-1.89l4.51-12.54h2.01l4.49,12.54ZM373.56,38.51l-1.9-6.22-1.97,6.22h3.87Z"/>
    <path class="st1" d="M384.18,43.44h-5.22v-12.51h5.54c1.9,0,3.34,1.03,3.33,3.04,0,1.24-.55,1.97-1.55,2.69,2.19,1.04,2.07,2.34,2.07,3.33,0,1.9-1.48,3.45-4.16,3.45ZM384.19,32.33h-3.45v3.94h3.45c1.13,0,1.87-.78,1.83-2-.04-1.43-.49-1.94-1.83-1.94ZM384.47,37.57h-3.73v4.51h3.73c1.39,0,2.07-.94,2.07-2.3s-.67-2.21-2.07-2.21Z"/>
    <path class="st1" d="M390.83,41.35c.34,0,.62.11.84.32.22.22.33.49.33.82s-.11.6-.33.82c-.22.22-.5.32-.84.32s-.62-.11-.84-.32c-.22-.22-.32-.49-.32-.82s.11-.6.32-.82c.22-.22.5-.32.84-.32Z"/>
  </g>
  <g>
    <path class="st0" d="M92.72,108.36c-1.89-1.83-4.07-3.28-6.55-4.34-2.48-1.06-5.13-1.59-7.97-1.59s-5.31.53-7.79,1.59-4.66,2.51-6.55,4.34c-1.89,1.83-3.36,3.98-4.43,6.46-1.06,2.48-1.59,5.2-1.59,8.14s.53,5.46,1.59,7.88c1.06,2.42,2.54,4.52,4.43,6.29,1.89,1.77,4.07,3.16,6.55,4.16,2.48,1,5.07,1.5,7.79,1.5s5.49-.5,7.97-1.5c2.48-1,4.66-2.39,6.55-4.16,1.89-1.77,3.36-3.87,4.43-6.29,1.06-2.42,1.59-5.05,1.59-7.88s-.53-5.67-1.59-8.14c-1.06-2.48-2.54-4.63-4.43-6.46ZM82,126.5c-.89,1.06-2.16,1.59-3.81,1.59-1.3,0-2.45-.53-3.45-1.59-1-1.06-1.51-2.24-1.51-3.54,0-1.42.5-2.63,1.51-3.63,1-1,2.15-1.51,3.45-1.51,1.65,0,2.92.5,3.81,1.51.89,1,1.33,2.21,1.33,3.63,0,1.3-.44,2.48-1.33,3.54Z"/>
    <polygon class="st0" points="73.06 73.21 56.06 57.8 56.06 57.63 71.11 57.63 71.11 42.05 55.53 42.05 55.53 28.41 38.71 28.41 38.71 42.05 22.95 42.05 22.95 57.63 38.53 57.63 38.53 57.8 21.54 73.03 32.51 85.07 47.39 71.44 62.44 85.07 73.06 73.21"/>
    <polygon class="st0" points="111.88 28.41 101.21 28.41 90.55 28.41 84.22 28.41 84.22 94.63 101.21 94.63 101.21 43.99 111.88 43.99 111.88 28.41"/>
  </g>
</svg>