<svg width="40" height="9" viewBox="0 0 40 9" fill="none" xmlns="http://www.w3.org/2000/svg">
<path d="M4 8.55786C6.20914 8.55786 8 6.7411 8 4.5C8 2.25891 6.20914 0.442139 4 0.442139C1.79086 0.442139 0 2.25891 0 4.5C0 6.7411 1.79086 8.55786 4 8.55786Z" fill="black"/>
<path d="M20 8.55786C22.2091 8.55786 24 6.7411 24 4.5C24 2.25891 22.2091 0.442139 20 0.442139C17.7909 0.442139 16 2.25891 16 4.5C16 6.7411 17.7909 8.55786 20 8.55786Z" fill="black"/>
<path d="M36 8.55786C38.2091 8.55786 40 6.7411 40 4.5C40 2.25891 38.2091 0.442139 36 0.442139C33.7909 0.442139 32 2.25891 32 4.5C32 6.7411 33.7909 8.55786 36 8.55786Z" fill="black"/>
</svg>
