<svg width="44" height="44" viewBox="0 0 44 44" fill="none" xmlns="http://www.w3.org/2000/svg">
<path d="M39.0625 41.5C39.709 41.5 40.3289 41.2652 40.7861 40.8473C41.2432 40.4293 41.5 39.8625 41.5 39.2714V36.4946C41.5097 30.2413 31.8134 25.3429 22 25.3429C12.1866 25.3429 2.5 30.2413 2.5 36.4946V39.2714C2.5 39.8625 2.75681 40.4293 3.21393 40.8473C3.67105 41.2652 4.29103 41.5 4.9375 41.5H39.0625ZM30.7847 10.5318C30.7847 11.5865 30.5575 12.6309 30.116 13.6054C29.6746 14.5799 29.0275 15.4653 28.2118 16.2111C27.396 16.9569 26.4276 17.5485 25.3618 17.9522C24.296 18.3558 23.1536 18.5635 22 18.5635C20.8464 18.5635 19.704 18.3558 18.6382 17.9522C17.5724 17.5485 16.604 16.9569 15.7882 16.2111C14.9725 15.4653 14.3254 14.5799 13.8839 13.6054C13.4425 12.6309 13.2152 11.5865 13.2152 10.5318C13.2152 8.40161 14.1408 6.3587 15.7882 4.85245C17.4357 3.3462 19.6701 2.5 22 2.5C24.3299 2.5 26.5643 3.3462 28.2118 4.85245C29.8592 6.3587 30.7847 8.40161 30.7847 10.5318Z" stroke="black" stroke-width="4.5" stroke-linecap="round" stroke-linejoin="round"/>
</svg>
