<svg width="39" height="39" viewBox="0 0 39 39" fill="none" xmlns="http://www.w3.org/2000/svg">
<path d="M14.4239 28.8478C10.3926 28.8478 6.98117 27.4513 4.18959 24.6582C1.39801 21.8652 0.00148055 18.4537 1.17411e-06 14.4239C-0.0014782 10.3941 1.39505 6.98265 4.18959 4.18959C6.98413 1.39653 10.3956 0 14.4239 0C18.4522 0 21.8644 1.39653 24.6604 4.18959C27.4564 6.98265 28.8522 10.3941 28.8478 14.4239C28.8478 16.0512 28.5889 17.5861 28.0711 19.0284C27.5533 20.4708 26.8506 21.7468 25.963 22.8563L38.3898 35.2831C38.7966 35.6899 39 36.2077 39 36.8364C39 37.4651 38.7966 37.9829 38.3898 38.3898C37.9829 38.7966 37.4651 39 36.8364 39C36.2077 39 35.6899 38.7966 35.2831 38.3898L22.8563 25.963C21.7468 26.8506 20.4708 27.5533 19.0285 28.0711C17.5861 28.5889 16.0512 28.8478 14.4239 28.8478ZM14.4239 24.4097C17.1977 24.4097 19.5558 23.4392 21.4983 21.4983C23.4407 19.5573 24.4112 17.1992 24.4097 14.4239C24.4082 11.6486 23.4377 9.29121 21.4983 7.35175C19.5588 5.41229 17.2007 4.44108 14.4239 4.43812C11.6471 4.43516 9.28973 5.40637 7.35175 7.35175C5.41377 9.29713 4.44256 11.6545 4.43812 14.4239C4.43369 17.1933 5.40489 19.5514 7.35175 21.4983C9.29861 23.4451 11.656 24.4156 14.4239 24.4097Z" fill="black"/>
</svg>
