<svg width="39" height="48" viewBox="0 0 39 48" fill="none" xmlns="http://www.w3.org/2000/svg">
<path d="M4.875 48C3.53437 48 2.38712 47.5304 1.43325 46.5912C0.479374 45.652 0.001625 44.5216 0 43.2V14.4C0 13.08 0.47775 11.9504 1.43325 11.0112C2.38875 10.072 3.536 9.6016 4.875 9.6H9.75C9.75 6.96 10.7047 4.7 12.6141 2.82C14.5234 0.94 16.8187 0 19.5 0C22.1812 0 24.4766 0.94 26.3859 2.82C28.2953 4.7 29.25 6.96 29.25 9.6H34.125C35.4656 9.6 36.6137 10.0704 37.5692 11.0112C38.5247 11.952 39.0016 13.0816 39 14.4V43.2C39 44.52 38.5231 45.6504 37.5692 46.5912C36.6153 47.532 35.4672 48.0016 34.125 48H4.875ZM4.875 43.2H34.125V14.4H29.25V19.2C29.25 19.88 29.016 20.4504 28.548 20.9112C28.08 21.372 27.5015 21.6016 26.8125 21.6C26.1235 21.5984 25.545 21.368 25.077 20.9088C24.609 20.4496 24.375 19.88 24.375 19.2V14.4H14.625V19.2C14.625 19.88 14.391 20.4504 13.923 20.9112C13.455 21.372 12.8765 21.6016 12.1875 21.6C11.4985 21.5984 10.92 21.368 10.452 20.9088C9.984 20.4496 9.75 19.88 9.75 19.2V14.4H4.875V43.2ZM14.625 9.6H24.375C24.375 8.28 23.8981 7.1504 22.9442 6.2112C21.9903 5.272 20.8422 4.8016 19.5 4.8C18.1577 4.7984 17.0105 5.2688 16.0582 6.2112C15.106 7.1536 14.6282 8.2832 14.625 9.6Z" fill="black"/>
</svg>
